<svg width="1200" height="760" viewBox="0 0 1200 760" fill="none" xmlns="http://www.w3.org/2000/svg">
  <defs>
    <linearGradient id="bg" x1="105" y1="52" x2="1094" y2="708" gradientUnits="userSpaceOnUse">
      <stop stop-color="#F5F7F4"/>
      <stop offset="1" stop-color="#E6F1EE"/>
    </linearGradient>
    <linearGradient id="panel" x1="0" y1="0" x2="1" y2="1">
      <stop stop-color="#FFFFFF"/>
      <stop offset="1" stop-color="#F8FBFA"/>
    </linearGradient>
    <filter id="shadow" x="80" y="110" width="1040" height="590" filterUnits="userSpaceOnUse" color-interpolation-filters="sRGB">
      <feFlood flood-opacity="0" result="BackgroundImageFix"/>
      <feColorMatrix in="SourceAlpha" type="matrix" values="0 0 0 0 0 0 0 0 0 0 0 0 0 0 0 0 0 0 127 0" result="hardAlpha"/>
      <feOffset dy="18"/>
      <feGaussianBlur stdDeviation="18"/>
      <feColorMatrix type="matrix" values="0 0 0 0 0.0588235 0 0 0 0 0.0941176 0 0 0 0 0.156863 0 0 0 0.12 0"/>
      <feBlend mode="normal" in2="BackgroundImageFix" result="effect1_dropShadow_1_1"/>
      <feBlend mode="normal" in="SourceGraphic" in2="effect1_dropShadow_1_1" result="shape"/>
    </filter>
  </defs>

  <rect width="1200" height="760" fill="url(#bg)"/>

  <text x="84" y="78" fill="#0F172A" font-family="Segoe UI, Arial, sans-serif" font-size="40" font-weight="700">From SDTM deliverables to a client-ready workbook</text>
  <text x="84" y="114" fill="#475569" font-family="Segoe UI, Arial, sans-serif" font-size="20">SDTM CSV + official metadata + study mapping -&gt; bilingual Excel dataset specification</text>

  <rect x="84" y="142" rx="16" width="124" height="40" fill="#DDF3EB"/>
  <text x="108" y="168" fill="#0F766E" font-family="Segoe UI, Arial, sans-serif" font-size="16" font-weight="700">8 domains</text>

  <rect x="222" y="142" rx="16" width="124" height="40" fill="#DBEAFE"/>
  <text x="248" y="168" fill="#1D4ED8" font-family="Segoe UI, Arial, sans-serif" font-size="16" font-weight="700">17 sheets</text>

  <rect x="360" y="142" rx="16" width="176" height="40" fill="#FEF3C7"/>
  <text x="390" y="168" fill="#B45309" font-family="Segoe UI, Arial, sans-serif" font-size="16" font-weight="700">70 codelist matches</text>

  <rect x="550" y="142" rx="16" width="170" height="40" fill="#EDE9FE"/>
  <text x="579" y="168" fill="#6D28D9" font-family="Segoe UI, Arial, sans-serif" font-size="16" font-weight="700">Japanese + English</text>

  <g filter="url(#shadow)">
    <rect x="98" y="186" width="1004" height="478" rx="28" fill="url(#panel)"/>
  </g>

  <rect x="128" y="220" width="242" height="410" rx="22" fill="#0F172A"/>
  <text x="156" y="260" fill="#F8FAFC" font-family="Segoe UI, Arial, sans-serif" font-size="24" font-weight="700">Inputs</text>
  <text x="156" y="286" fill="#94A3B8" font-family="Segoe UI, Arial, sans-serif" font-size="14">The files a study team already has</text>

  <rect x="150" y="316" width="198" height="62" rx="16" fill="#1E293B"/>
  <text x="170" y="342" fill="#E2E8F0" font-family="Segoe UI, Arial, sans-serif" font-size="18" font-weight="700">SDTM CSV</text>
  <text x="170" y="362" fill="#94A3B8" font-family="Segoe UI, Arial, sans-serif" font-size="13">DM, CM, DS, MI, PR, RS, SS, TU</text>

  <rect x="150" y="392" width="198" height="62" rx="16" fill="#1E293B"/>
  <text x="170" y="418" fill="#E2E8F0" font-family="Segoe UI, Arial, sans-serif" font-size="18" font-weight="700">SDTMIG v3.4</text>
  <text x="170" y="438" fill="#94A3B8" font-family="Segoe UI, Arial, sans-serif" font-size="13">Labels, roles, core, notes</text>

  <rect x="150" y="468" width="198" height="62" rx="16" fill="#1E293B"/>
  <text x="170" y="494" fill="#E2E8F0" font-family="Segoe UI, Arial, sans-serif" font-size="18" font-weight="700">Terminology</text>
  <text x="170" y="514" fill="#94A3B8" font-family="Segoe UI, Arial, sans-serif" font-size="13">Controlled terminology matching</text>

  <rect x="150" y="544" width="198" height="62" rx="16" fill="#1E293B"/>
  <text x="170" y="570" fill="#E2E8F0" font-family="Segoe UI, Arial, sans-serif" font-size="18" font-weight="700">OperationConf</text>
  <text x="170" y="590" fill="#94A3B8" font-family="Segoe UI, Arial, sans-serif" font-size="13">Mapping, sort keys, definitions</text>

  <rect x="398" y="268" width="210" height="312" rx="24" fill="#ECFDF5" stroke="#A7F3D0"/>
  <text x="427" y="308" fill="#065F46" font-family="Segoe UI, Arial, sans-serif" font-size="24" font-weight="700">Rust generator</text>
  <text x="427" y="334" fill="#047857" font-family="Segoe UI, Arial, sans-serif" font-size="15">Deterministic CLI workflow</text>

  <rect x="427" y="362" width="152" height="36" rx="12" fill="#FFFFFF"/>
  <text x="448" y="385" fill="#0F172A" font-family="Segoe UI, Arial, sans-serif" font-size="15" font-weight="700">1. Read inputs</text>

  <rect x="427" y="412" width="152" height="36" rx="12" fill="#FFFFFF"/>
  <text x="448" y="435" fill="#0F172A" font-family="Segoe UI, Arial, sans-serif" font-size="15" font-weight="700">2. Analyze domains</text>

  <rect x="427" y="462" width="152" height="36" rx="12" fill="#FFFFFF"/>
  <text x="448" y="485" fill="#0F172A" font-family="Segoe UI, Arial, sans-serif" font-size="15" font-weight="700">3. Match codelists</text>

  <rect x="427" y="512" width="152" height="36" rx="12" fill="#FFFFFF"/>
  <text x="448" y="535" fill="#0F172A" font-family="Segoe UI, Arial, sans-serif" font-size="15" font-weight="700">4. Write workbook</text>

  <path d="M370 424H397" stroke="#10B981" stroke-width="6" stroke-linecap="round"/>
  <path d="M609 424H640" stroke="#10B981" stroke-width="6" stroke-linecap="round"/>
  <path d="M390 412L405 424L390 436" stroke="#10B981" stroke-width="6" stroke-linecap="round" stroke-linejoin="round"/>
  <path d="M625 412L640 424L625 436" stroke="#10B981" stroke-width="6" stroke-linecap="round" stroke-linejoin="round"/>

  <rect x="658" y="226" width="410" height="394" rx="24" fill="#F8FAFC" stroke="#CBD5E1"/>
  <rect x="658" y="226" width="410" height="44" rx="24" fill="#E2E8F0"/>
  <circle cx="690" cy="248" r="7" fill="#F87171"/>
  <circle cx="714" cy="248" r="7" fill="#FBBF24"/>
  <circle cx="738" cy="248" r="7" fill="#34D399"/>
  <text x="770" y="254" fill="#334155" font-family="Segoe UI, Arial, sans-serif" font-size="16" font-weight="700">ENSEMBLE_SDTM_Dataset_Specification_20260327.xlsx</text>

  <text x="688" y="302" fill="#0F172A" font-family="Segoe UI, Arial, sans-serif" font-size="24" font-weight="700">Workbook preview</text>
  <text x="688" y="326" fill="#64748B" font-family="Segoe UI, Arial, sans-serif" font-size="14">Dataset overview plus traceability and domain-level detail</text>

  <rect x="688" y="352" width="350" height="30" rx="8" fill="#E2E8F0"/>
  <text x="706" y="372" fill="#475569" font-family="Segoe UI, Arial, sans-serif" font-size="13" font-weight="700">Domain</text>
  <text x="776" y="372" fill="#475569" font-family="Segoe UI, Arial, sans-serif" font-size="13" font-weight="700">Dataset Name</text>
  <text x="966" y="372" fill="#475569" font-family="Segoe UI, Arial, sans-serif" font-size="13" font-weight="700">Records</text>
  <text x="1016" y="372" fill="#475569" font-family="Segoe UI, Arial, sans-serif" font-size="13" font-weight="700">Hierarchy</text>

  <rect x="688" y="388" width="350" height="34" rx="8" fill="#FFFFFF"/>
  <text x="706" y="410" fill="#0F172A" font-family="Segoe UI, Arial, sans-serif" font-size="13">CM</text>
  <text x="776" y="410" fill="#334155" font-family="Segoe UI, Arial, sans-serif" font-size="13">Concomitant/Prior Medications</text>
  <text x="970" y="410" fill="#0F172A" font-family="Segoe UI, Arial, sans-serif" font-size="13">81</text>
  <text x="1016" y="410" fill="#334155" font-family="Segoe UI, Arial, sans-serif" font-size="13">CAT -&gt; SCAT -&gt; TRT</text>

  <rect x="688" y="430" width="350" height="34" rx="8" fill="#FFFFFF"/>
  <text x="706" y="452" fill="#0F172A" font-family="Segoe UI, Arial, sans-serif" font-size="13">DM</text>
  <text x="776" y="452" fill="#334155" font-family="Segoe UI, Arial, sans-serif" font-size="13">Demographics</text>
  <text x="970" y="452" fill="#0F172A" font-family="Segoe UI, Arial, sans-serif" font-size="13">200</text>
  <text x="1016" y="452" fill="#334155" font-family="Segoe UI, Arial, sans-serif" font-size="13">-</text>

  <rect x="688" y="472" width="350" height="34" rx="8" fill="#FFFFFF"/>
  <text x="706" y="494" fill="#0F172A" font-family="Segoe UI, Arial, sans-serif" font-size="13">DS</text>
  <text x="776" y="494" fill="#334155" font-family="Segoe UI, Arial, sans-serif" font-size="13">Disposition</text>
  <text x="970" y="494" fill="#0F172A" font-family="Segoe UI, Arial, sans-serif" font-size="13">191</text>
  <text x="1016" y="494" fill="#334155" font-family="Segoe UI, Arial, sans-serif" font-size="13">CAT -&gt; SCAT -&gt; DECOD</text>

  <rect x="688" y="514" width="350" height="34" rx="8" fill="#FFFFFF"/>
  <text x="706" y="536" fill="#0F172A" font-family="Segoe UI, Arial, sans-serif" font-size="13">RS</text>
  <text x="776" y="536" fill="#334155" font-family="Segoe UI, Arial, sans-serif" font-size="13">Disease Response and Clin Classification</text>
  <text x="970" y="536" fill="#0F172A" font-family="Segoe UI, Arial, sans-serif" font-size="13">2061</text>
  <text x="1016" y="536" fill="#334155" font-family="Segoe UI, Arial, sans-serif" font-size="13">CAT -&gt; SCAT -&gt; TESTCD</text>

  <rect x="856" y="572" width="88" height="26" rx="10" fill="#DBEAFE"/>
  <text x="876" y="589" fill="#1D4ED8" font-family="Segoe UI, Arial, sans-serif" font-size="12" font-weight="700">DataTrace</text>
  <rect x="950" y="572" width="78" height="26" rx="10" fill="#DDF3EB"/>
  <text x="971" y="589" fill="#0F766E" font-family="Segoe UI, Arial, sans-serif" font-size="12" font-weight="700">Codelist</text>

  <rect x="688" y="592" width="76" height="18" rx="8" fill="#0F766E"/>
  <text x="709" y="605" fill="#FFFFFF" font-family="Segoe UI, Arial, sans-serif" font-size="11" font-weight="700">Cover</text>
  <rect x="770" y="592" width="86" height="18" rx="8" fill="#D1FAE5"/>
  <text x="790" y="605" fill="#065F46" font-family="Segoe UI, Arial, sans-serif" font-size="11" font-weight="700">DatasetList</text>
  <rect x="862" y="592" width="86" height="18" rx="8" fill="#D1FAE5"/>
  <text x="885" y="605" fill="#065F46" font-family="Segoe UI, Arial, sans-serif" font-size="11" font-weight="700">DomainTree</text>
  <rect x="954" y="592" width="56" height="18" rx="8" fill="#D1FAE5"/>
  <text x="977" y="605" fill="#065F46" font-family="Segoe UI, Arial, sans-serif" font-size="11" font-weight="700">DM</text>

  <text x="84" y="718" fill="#64748B" font-family="Segoe UI, Arial, sans-serif" font-size="15">Designed for a repo homepage: clear problem statement, verifiable sample, and delivery-ready output.</text>
</svg>
